<svg viewBox="60 15 130 210" xmlns="http://www.w3.org/2000/svg">
  <!-- Lock Shackle -->
  <path d="M 125 20 A 60 60 0 0 1 185 80 L 185 120 L 170 120 L 170 80 A 45 45 0 0 0 125 35 A 45 45 0 0 0 80 80 L 80 120 L 65 120 L 65 80 A 60 60 0 0 1 125 20 Z" fill="#7C3AED"/>
  
  <!-- Lock Body (outer circle) -->
  <circle cx="125" cy="140" r="80" fill="#7C3AED"/>
  
  <!-- Lock Body (inner white circle) -->
  <circle cx="125" cy="140" r="55" fill="white"/>
  
  <!-- Center dot -->
  <circle cx="125" cy="140" r="20" fill="#7C3AED"/>
  
  <!-- Surrounding dots (8 dots in a circle) -->
  <circle cx="125" cy="95" r="6" fill="#7C3AED"/>
  <circle cx="160" cy="105" r="6" fill="#7C3AED"/>
  <circle cx="170" cy="140" r="6" fill="#7C3AED"/>
  <circle cx="160" cy="175" r="6" fill="#7C3AED"/>
  <circle cx="125" cy="185" r="6" fill="#7C3AED"/>
  <circle cx="90" cy="175" r="6" fill="#7C3AED"/>
  <circle cx="80" cy="140" r="6" fill="#7C3AED"/>
  <circle cx="90" cy="105" r="6" fill="#7C3AED"/>
</svg>